<svg width="32" height="32" viewBox="0 0 32 32" fill="none" xmlns="http://www.w3.org/2000/svg">
<rect width="32" height="32" rx="6" fill="white"/>
<g transform="translate(3,3) scale(0.0696)">
<path d="M182.335 190.501L182.336 205.501C182.336 293.196 157.076 342.583 121.029 363.295C85.3812 383.777 44.694 372.749 23.3407 351.396L22.8446 350.894C1.91292 329.506 -9.44266 288.778 10.0565 252.837C30.0759 215.939 79.0362 190.002 166.836 190.002L181.835 190.001H182.335V190.501ZM203.502 191.002C291.196 191.002 340.584 216.261 361.296 252.309C381.777 287.957 370.749 328.643 349.396 349.996L348.894 350.494C327.507 371.425 286.778 382.78 250.838 363.282C213.939 343.262 188.003 294.302 188.003 206.502L188.002 191.502V191.003H188.502L203.502 191.002ZM151.031 221.317C79.1615 224.225 48.4944 246.997 37.3046 267.62C25.1544 290.016 32.3059 315.929 44.6688 328.87L45.2616 329.475C57.8797 342.093 83.4596 349.13 105.587 336.416C125.886 324.752 148.187 293.377 151.031 221.317ZM219.316 222.307C222.225 294.177 244.997 324.843 265.621 336.033C288.016 348.183 313.928 341.032 326.869 328.669L327.475 328.077C340.093 315.459 347.13 289.878 334.417 267.751C322.753 247.452 291.377 225.151 219.316 222.307ZM23.3397 22.7562C41.3732 4.72322 72.7579 -5.71835 103.391 3.30115C135.164 12.657 162.399 41.5935 174.854 94.9965C176.556 102.292 177.367 107.862 177.799 110.202L182.026 133.093L182.167 133.857L181.414 133.669L158.821 128.059C152.341 126.45 110.907 114.314 88.0429 107.356L73.6923 102.989L73.2138 102.842L73.3593 102.364L82.0946 73.6644L82.2401 73.1859L82.7186 73.3314L97.0692 77.6986C109.611 81.5157 127.287 86.747 141.722 90.9603C130.362 53.1478 111.156 37.9035 94.6337 33.0385C75.4486 27.3897 55.6931 34.2452 45.2606 44.6771L44.6679 45.2826C32.3048 58.2234 25.1536 84.1361 37.3036 106.532C49.2811 128.608 83.5792 153.15 166.835 153.15L181.835 153.151H182.335V153.651L182.334 183.651V184.151H181.834L166.835 184.15C79.0348 184.15 30.0748 158.213 10.0555 121.315C-9.44345 85.3742 1.9119 44.6459 22.8436 23.2582L23.3397 22.7562ZM250.837 11.057C286.777 -8.4421 327.506 2.91339 348.893 23.8451L349.395 24.3412C370.748 45.6945 381.777 86.3819 361.296 122.03C340.584 158.077 291.196 183.336 203.502 183.336L188.501 183.335H188.001V182.835L188.003 167.836C188.003 80.0365 213.938 31.0763 250.837 11.057ZM326.869 45.6693C313.928 33.3063 288.016 26.1557 265.62 38.306C244.996 49.4958 222.225 80.1617 219.316 152.032C291.377 149.188 322.753 126.887 334.417 106.587C347.13 84.4604 340.093 58.8803 327.475 46.2621L326.869 45.6693Z" fill="#1a1a1a"/>
</g>
</svg>
